<svg xmlns="http://www.w3.org/2000/svg" xmlns:xlink="http://www.w3.org/1999/xlink" viewBox="0 0 891 193"><defs><style>.cls-1{isolation:isolate;}.cls-2{fill:#f5842e;}.cls-2,.cls-3{stroke:#aa4c0c;stroke-miterlimit:10;stroke-width:5px;}.cls-3{opacity:0.53;mix-blend-mode:overlay;fill:url(#linear-gradient);}.cls-4{fill:#fff;}</style><linearGradient id="linear-gradient" x1="445.5" y1="2.5" x2="445.5" y2="190.5" gradientUnits="userSpaceOnUse"><stop offset="0" stop-color="#fff"/><stop offset="1"/></linearGradient></defs><title>Begin_Battle_BTN</title><g class="cls-1"><g id="Layer_2" data-name="Layer 2"><g id="Layer_1-2" data-name="Layer 1"><rect class="cls-2" x="2.5" y="2.5" width="886" height="188" rx="10" ry="10"/><rect class="cls-3" x="2.5" y="2.5" width="886" height="188" rx="10" ry="10"/><path class="cls-4" d="M236.7,112.25h-36v-36h36v3.6h3.6v10.8h-3.6v7.2h3.6v10.8h-3.6Zm-21.6-21.6h10.8v-7.2H215.1Zm0,14.4h10.8v-7.2H215.1Z"/><path class="cls-4" d="M247.5,108.65h-3.6V79.85h3.6v-3.6h36v7.2H258.3v7.2h10.8v7.2H258.3V105h25.2v7.2h-36Z"/><path class="cls-4" d="M323.1,112.25H290.7v-3.6h-3.6V79.85h3.6v-3.6h36v7.2H301.5V105h10.8v-7.2h-7.2v-7.2h18v3.6h3.6v14.4h-3.6Z"/><path class="cls-4" d="M330.3,76.25h36v7.2H355.5V105h10.8v7.2h-36V105h10.8V83.45H330.3Z"/><path class="cls-4" d="M384.3,112.25H369.9v-36h14.4v3.6h3.6v3.6h3.6V87h3.6V76.25h14.4v36H395.1v-10.8h-3.6v-3.6h-3.6v-3.6h-3.6Z"/><path class="cls-4" d="M474.3,112.25h-36v-36h36v3.6h3.6v10.8h-3.6v7.2h3.6v10.8h-3.6Zm-21.6-21.6h10.8v-7.2H452.7Zm0,14.4h10.8v-7.2H452.7Z"/><path class="cls-4" d="M495.9,112.25H481.5V79.85h3.6v-3.6h32.4v3.6h3.6v32.4H506.7V97.85H495.9Zm0-21.6h10.8v-7.2H495.9Z"/><path class="cls-4" d="M549.9,112.25H535.5V83.45H524.7v-7.2h36v7.2H549.9Z"/><path class="cls-4" d="M589.5,112.25H575.1V83.45H564.3v-7.2h36v7.2H589.5Z"/><path class="cls-4" d="M603.9,76.25h14.4V105h25.2v7.2H603.9Z"/><path class="cls-4" d="M650.7,108.65h-3.6V79.85h3.6v-3.6h36v7.2H661.5v7.2h10.8v7.2H661.5V105h25.2v7.2h-36Z"/></g></g></g></svg>