<svg xmlns="http://www.w3.org/2000/svg" viewBox="0 0 338.39 36"><defs><style>.cls-1{fill:#e52c73;}</style></defs><title>Controls_Title</title><g id="Layer_2" data-name="Layer 2"><g id="Layer_1-2" data-name="Layer 1"><path class="cls-1" d="M36,36H3.6V32.4H0V3.6H3.6V0H36V3.6h3.6V14.4H25.2V7.2H14.4V28.8H25.2V21.6H39.6V32.4H36Z"/><path class="cls-1" d="M79.2,36H46.8V32.4H43.2V3.6h3.6V0H79.2V3.6h3.6V32.4H79.2ZM68.4,14.4V7.2H57.6V28.8H68.4V14.4Z"/><path class="cls-1" d="M100.8,36H86.4V0h14.4V3.6h3.6V7.2H108v3.6h3.6V0H126V36H111.6V25.2H108V21.6h-3.6V18h-3.6Z"/><path class="cls-1" d="M154.8,36H140.4V7.2H129.6V0h36V7.2H154.8Z"/><path class="cls-1" d="M183.6,36H169.2V0h36V3.6h3.6V14.4h-3.6v7.2h3.6V36H194.4V21.6H183.6Zm0-21.6h10.8V7.2H183.6Z"/><path class="cls-1" d="M248.4,36H216V32.4h-3.6V3.6H216V0h32.4V3.6H252V32.4h-3.6ZM237.6,14.4V7.2H226.8V28.8h10.8V14.4Z"/><path class="cls-1" d="M255.6,0H270V28.8h25.2V36H255.6Z"/><path class="cls-1" d="M298.79,28.8H324V21.6h-21.6V18h-3.6V3.6h3.6V0h36V7.2H313.2v7.2h21.6V18h3.6V32.4h-3.6V36h-36Z"/></g></g></svg>