<svg xmlns="http://www.w3.org/2000/svg" viewBox="0 0 205.5 193.97"><defs><style>.cls-1{fill:#b8e9f2;}.cls-2{fill:#74c8d6;}.cls-3{fill:#8e8d8d;}</style></defs><title>Hand4</title><g id="Layer_2" data-name="Layer 2"><g id="Layer_1-2" data-name="Layer 1"><path class="cls-1" d="M124.28,154.36c.33-.28,19.08-6.68,28.95-14.78S174,112.45,177.44,96.72s4.81-21.94,8.33-23,7.13,5.92,4.93,15.62-10.38,23.47-10.38,23.47,7.88-10.9,11.13-18.37,8.79-10,9.82-3.81-5.61,16.12-10.82,22.88A71.08,71.08,0,0,1,181,123.8a46.89,46.89,0,0,0,11.86-10.52c5.6-7,9.45-8.56,11.18-5.6s-4.46,12.12-10.25,16.93-14.45,6.6-14.45,6.6a102.13,102.13,0,0,0,12.39-1.45c6-1.15,10-.13,9.6,3.69s-9.95,6.57-16.47,7.3a44.29,44.29,0,0,1-12.4-.48s8.84,2.48,12.19,3.65,4,4.46-2.87,6.15-15.61-3.8-15.61-3.8a99.42,99.42,0,0,1,8.89,7c2.46,2.45-1.15,5.6-6.29,3.87a44.22,44.22,0,0,1-10.4-5.66s7.46,5.58,6.48,7.55-5.37,1.65-8.93-.4l-7.19-4.14s5.65,4.06,3.1,5.61-9.24-3.57-9.24-3.57,3.08,4.42.76,6.32-8.66-4.18-8.66-4.18,2,3.64-.47,4.83-6-3.64-6-3.64Z"/><path class="cls-2" d="M133.38,164.82a6.1,6.1,0,0,1-3.83-1.85,17.76,17.76,0,0,1-2.25-2.44l-4.56-6.34.8-.68c.2-.17.29-.2,1.77-.77,4.71-1.81,19-7.32,27.19-14,9.79-8,20.47-27,23.82-42.23,3.6-16.44,5-22.59,9.12-23.85a3.92,3.92,0,0,1,3.88,1.07c2.5,2.33,4.25,8.16,2.49,15.9-.24,1.07-.55,2.19-.92,3.33,2.21-4.5,5.34-7.23,8-6.91,1.06.13,2.94.88,3.53,4.43.71,4.27-1.72,10.49-7.22,18.52,2.73-2.72,5-4,6.92-3.84a3.65,3.65,0,0,1,3,2c1.31,2.26-.54,6.12-2.33,9a42,42,0,0,1-8.18,9.43,28.71,28.71,0,0,1-5.73,3.61c.9-.14,1.82-.29,2.73-.46,4.65-.88,7.89-.52,9.64,1.09a4.34,4.34,0,0,1,1.31,3.84c-.54,5.27-12.8,7.79-17.48,8.32-.79.09-1.56.15-2.32.19.91.28,1.72.55,2.35.77,2.05.72,3.28,2.14,3.21,3.71s-1.2,3.41-6.19,4.63a16.57,16.57,0,0,1-7.92-.3c.67.56,1.26,1.09,1.73,1.56a3.22,3.22,0,0,1,.65,4.1c-1.47,2.38-5.2,2.64-8.11,1.66a28.31,28.31,0,0,1-2.76-1.1,2.56,2.56,0,0,1,.23,2.42,3.41,3.41,0,0,1-2.17,1.7c-2.18.66-5.54,0-8.36-1.61l-1.76-1a2.52,2.52,0,0,1,0,.51,2.36,2.36,0,0,1-1.2,2c-1.84,1.13-4.85-.09-7.22-1.44a3.94,3.94,0,0,1-1.14,4.1c-1.42,1.16-3.57.73-6.57-1.32-.33-.22-.64-.45-.94-.68a3.79,3.79,0,0,1-.17.87,3.19,3.19,0,0,1-1.68,1.92A3,3,0,0,1,133.38,164.82Zm-7.32-9.94,3.08,4.29c1.26,1.69,3.55,3.78,4.57,3.28a.9.9,0,0,0,.51-.56,4.41,4.41,0,0,0-.54-2.7l-3.24-6c-1.79.73-3.28,1.3-4.32,1.7Zm4.51-1.77,4.92,4.71a29.86,29.86,0,0,0,3.33,2.7c2.39,1.63,3.52,1.66,3.82,1.42,1.24-1-.45-4-1-4.79l-4.11-5.95,5.74,4.39c2.94,2.25,6.84,4.19,8,3.51a.42.42,0,0,0,.12-.09c.09-.49-1.35-2.22-3.29-3.62l1.24-1.92,7.19,4.14c2.53,1.46,5.21,1.81,6.55,1.4a1.37,1.37,0,0,0,.75-.47c-.1-.93-3-3.84-6.1-6.19l1.37-1.83A43.35,43.35,0,0,0,169.15,156c2.86,1,4.9.17,5.44-.69.09-.15.37-.6-.32-1.28a99,99,0,0,0-8.74-6.86l1.27-1.9c.08.05,8.4,5.22,14.73,3.66,3.46-.85,4.42-2,4.45-2.52s-.5-1-1.68-1.44c-3.27-1.15-12-3.6-12.12-3.63l.54-2.22a41.84,41.84,0,0,0,22.29-2c3.14-1.21,5.09-2.65,5.21-3.86a2.14,2.14,0,0,0-.58-1.92c-1.14-1-3.94-1.24-7.67-.53a102.07,102.07,0,0,1-12.55,1.47l-.29-2.26c.08,0,8.46-1.8,14-6.36a40.23,40.23,0,0,0,7.71-8.89c2.2-3.49,2.73-5.82,2.29-6.59a1.4,1.4,0,0,0-1.15-.84c-.81-.07-3.22.46-8.15,6.58a47.65,47.65,0,0,1-12.19,10.79l-1.3-1.87a70.9,70.9,0,0,0,9.26-10.11c9.69-12.56,11.11-18.89,10.6-22-.15-.89-.55-2.41-1.55-2.54-1.5-.19-4.2,2.24-6.1,6.61-3.26,7.5-10.93,18.14-11.25,18.59l-1.91-1.25c.08-.14,8.11-13.72,10.24-23.13,1.48-6.52.2-11.84-1.82-13.72a1.69,1.69,0,0,0-1.67-.55c-2.88.87-4.35,7.54-7.55,22.15a91.69,91.69,0,0,1-9.82,24.61c-4.62,8.15-9.87,14.86-14.78,18.89C147.38,145.87,137.07,150.47,130.57,153.11Z"/><path class="cls-1" d="M85.06,153.21c-.35-.25-19.61-4.9-30.18-12.06S31.72,116,26.84,100.7,20,79.3,16.43,78.56s-6.56,6.55-3.48,16S25.44,117,25.44,117s-8.85-10.13-12.77-17.27S3,90.54,2.54,96.83s7.06,15.54,12.87,21.79A71.08,71.08,0,0,0,25.75,128,46.89,46.89,0,0,1,13,118.61c-6.21-6.41-10.2-7.66-11.64-4.55S6.89,125.71,13.1,130s15,5.25,15,5.25a102.13,102.13,0,0,1-12.48-.31c-6.11-.59-10,.79-9.23,4.55s10.51,5.62,17.07,5.76a44.29,44.29,0,0,0,12.3-1.62s-8.58,3.28-11.8,4.75-3.59,4.81,3.43,5.86S42.59,149,42.59,149a99.42,99.42,0,0,0-8.21,7.77C32.16,159.44,36,162.23,41,160a44.22,44.22,0,0,0,9.83-6.59s-6.91,6.24-5.76,8.11,5.5,1.15,8.86-1.22l6.78-4.79s-5.25,4.56-2.58,5.87S67,157,67,157s-2.66,4.69-.17,6.37,8.24-5,8.24-5-1.61,3.8.92,4.77S81.65,159,81.65,159Z"/><path class="cls-2" d="M67.79,164.82a2.76,2.76,0,0,1-1.58-.48,3.83,3.83,0,0,1-1.52-4c-2.23,1.56-5.11,3-7.05,2.09a2.36,2.36,0,0,1-1.38-1.83,2.51,2.51,0,0,1,0-.51l-1.66,1.17c-2.66,1.87-5.94,2.83-8.17,2.37a3.41,3.41,0,0,1-2.31-1.49,2.56,2.56,0,0,1,0-2.43,28.29,28.29,0,0,1-2.65,1.35c-2.81,1.24-6.54,1.33-8.23-.91A3.22,3.22,0,0,1,33.5,156c.42-.51,1-1.09,1.58-1.71a16.56,16.56,0,0,1-7.86,1c-5.08-.76-6.38-2.62-6.58-4s.87-3.08,2.85-4c.61-.28,1.39-.61,2.27-1-.76,0-1.53,0-2.33,0-4.71-.1-17.15-1.48-18.17-6.68a4.34,4.34,0,0,1,1-3.94c1.6-1.76,4.79-2.42,9.5-2,.92.09,1.85.16,2.76.21a28.71,28.71,0,0,1-6-3.07,42,42,0,0,1-9-8.63c-2-2.66-4.24-6.33-3.14-8.7a3.65,3.65,0,0,1,2.76-2.23c1.89-.32,4.28.73,7.24,3.19C4.08,107,1.09,101.06,1.4,96.74c.26-3.59,2.06-4.51,3.1-4.74,2.6-.57,6,1.87,8.58,6.15-.47-1.1-.88-2.18-1.22-3.23-2.46-7.55-1.26-13.51,1-16.06a3.92,3.92,0,0,1,3.77-1.42c4.27.87,6.17,6.87,11.27,22.91,4.73,14.87,17.1,32.76,27.59,39.86,8.74,5.92,23.51,10.09,28.37,11.46,1.52.43,1.62.46,1.83.61l.86.61-3.95,6.72a17.73,17.73,0,0,1-2,2.65c-1.8,1.92-3.49,2.59-5,2a3.19,3.19,0,0,1-1.85-1.75,3.78,3.78,0,0,1-.25-.85c-.28.25-.57.51-.88.76C70.69,164,69.1,164.82,67.79,164.82Zm3.83-13.59L68,157.59c-.45.8-1.86,4-.53,4.85.93.63,4.39-2,6.74-4.76l4.46-5.15c-6.71-2-17.4-5.66-24.44-10.44-5.26-3.56-11.1-9.76-16.45-17.46a91.68,91.68,0,0,1-12-23.6c-4.53-14.26-6.6-20.76-9.55-21.36a1.7,1.7,0,0,0-1.61.7C12.75,82.45,12,87.86,14,94.22c3,9.18,12.23,22,12.33,22.1l-1.78,1.42c-.36-.42-9-10.31-12.91-17.47-2.3-4.18-5.2-6.35-6.68-6C4,94.45,3.75,96,3.68,96.91c-.23,3.14,1.77,9.31,12.57,20.93A70.55,70.55,0,0,0,26.4,127l-1.12,2a47.63,47.63,0,0,1-13.13-9.63c-5.47-5.65-7.92-5.94-8.72-5.81a1.4,1.4,0,0,0-1.07.94c-1,2.05,4.88,10,11.38,14.49,5.91,4,14.39,5,14.48,5.05l-.08,2.28a102.19,102.19,0,0,1-12.64-.31c-3.79-.37-6.55.08-7.59,1.23a2.14,2.14,0,0,0-.4,2c.23,1.19,2.31,2.44,5.54,3.36a43.81,43.81,0,0,0,10.43,1.47,43.44,43.44,0,0,0,11.95-1.57l.74,2.16c-.09,0-8.58,3.28-11.73,4.72-1.14.52-1.6,1.19-1.54,1.59s1.14,1.58,4.66,2.1c6.46,1,14.25-4.94,14.33-5l1.44,1.78a99,99,0,0,0-8.07,7.63c-.62.75-.31,1.17-.2,1.31.61.81,2.72,1.41,5.48.19a43.2,43.2,0,0,0,9.53-6.39h0l1.53,1.7h0c-3,2.68-5.5,5.78-5.51,6.72a1.37,1.37,0,0,0,.79.4c1.37.28,4-.32,6.4-2l6.78-4.79,1.41,1.8c-1.47,1.28-3.11,3.32-2.94,3.92l.12.07c1,.47,4.23-1.12,7.6-4.22Zm7.2,1.34-2.68,6.3a4.45,4.45,0,0,0-.29,2.74.9.9,0,0,0,.56.51c1.07.41,3.16-1.89,4.26-3.7l2.67-4.54-.07,0C82.2,153.57,80.66,153.14,78.81,152.58Z"/><path class="cls-3" d="M161.94,145.09V106.59c0-5.36-3-7.88-10.12-11.66-1.46-.76-3.07-1.62-5.7-2.88a1.25,1.25,0,0,0-1.95,1.22v8.88a2.13,2.13,0,0,1-2.13,2.13h-.18a2.13,2.13,0,0,1-2.13-2.13V91.8A4.44,4.44,0,0,0,137.2,88c-4.29-1.8-8.72-3.52-14.31-5.37a1.84,1.84,0,0,0-2.42,1.74V96.24a2.13,2.13,0,0,1-2.13,2.13h-.18A2.13,2.13,0,0,1,116,96.24V82.92a3.41,3.41,0,0,0-2.22-3c-4.75-1.32-9.33-2.42-14.71-3.44a1.82,1.82,0,0,0-2.23,1.85L96.79,106a2.13,2.13,0,0,1-2.13,2.13h-.18A2.13,2.13,0,0,1,92.34,106l0-71.9A13.32,13.32,0,0,0,79,20.75h0A13.32,13.32,0,0,0,65.67,34.08l0,92.53a2.22,2.22,0,0,1-2.22,2.22h0a2.22,2.22,0,0,1-2.22-2.22V91.82c-2.45,1-14,8-15.62,8.88-3,1.7-3.62,4-3.62,10.37v29.61c0,8.7,33.15,50.65,33.15,50.65A6.77,6.77,0,0,0,80.52,194l54.78,0a6.75,6.75,0,0,0,5.55-2.89C146.25,183.28,161.94,160.39,161.94,145.09Z"/><path class="cls-3" d="M106.24,26.84A26.85,26.85,0,1,0,61,46.39V29.76a18.62,18.62,0,1,1,36.1,2.83V47A26.79,26.79,0,0,0,106.24,26.84Z"/></g></g></svg>