<svg xmlns="http://www.w3.org/2000/svg" viewBox="0 0 86.36 75.67"><defs><style>.cls-1{fill:#f70f51;}.cls-2{fill:#f95377;}</style></defs><title>Health_Icon</title><g id="Layer_2" data-name="Layer 2"><g id="Layer_1-2" data-name="Layer 1"><g id="nuiBtS.tif"><path class="cls-1" d="M43.18,71.33,35.78,64C28,56.25,19.89,48.25,12.12,40.23a48.62,48.62,0,0,1-6.8-9.93,20,20,0,0,1-1.58-4.51c-.18-.68-.37-1.39-.59-2.1V18.17a12.59,12.59,0,0,0,.34-1.27A17.07,17.07,0,0,1,7.76,8.23a16.54,16.54,0,0,1,8.56-4.39c.94-.2,1.92-.34,3-.49l1.25-.19a3.77,3.77,0,0,0,1.23.21h0c6.08,0,11.18,2.77,16.06,8.73.66.81,1.36,1.57,2,2.31l.91,1L43.11,18l2.35-2.54,2-2.19c1.41-1.54,2.73-3,4.1-4.39A16.89,16.89,0,0,1,61.23,3.7c1-.15,1.93-.27,2.95-.39l1.22-.15h.39l.41.08a17.7,17.7,0,0,0,1.91.29,16.42,16.42,0,0,1,9.62,3.94,16.25,16.25,0,0,1,5.07,9c.11.52.24,1,.36,1.46l0,.17v5.76c-1.85,9.28-8.06,15.89-14.27,21.88s-12.28,12.07-18.2,18C48.26,66.25,45.7,68.81,43.18,71.33Z"/><path class="cls-2" d="M65.53,6.31h.07a20.56,20.56,0,0,0,2.24.34A12.65,12.65,0,0,1,79.71,17.12c.11.52.23,1,.34,1.41v5a27.62,27.62,0,0,1-4.56,10.15,69,69,0,0,1-8.75,9.78c-6.18,5.95-12.31,12.1-18.24,18.06l-5.33,5.34L38,61.75C30.19,54,22.13,46,14.39,38a46.16,46.16,0,0,1-6.32-9.29A18.12,18.12,0,0,1,6.78,25c-.15-.57-.31-1.14-.48-1.74V18.65c.09-.32.2-.69.28-1.1C7.83,11.47,11,8.19,17,6.91c.83-.18,1.76-.31,2.74-.46l.62-.09a6.83,6.83,0,0,0,1.42.15h0c5.13,0,9.33,2.34,13.63,7.58.72.88,1.45,1.67,2.16,2.44l.89,1,4.62,5.14,4.7-5.07,2-2.21c1.39-1.52,2.7-3,4-4.31a13.85,13.85,0,0,1,7.9-4.25c.9-.14,1.84-.26,2.83-.38l1-.12M66.06,0H65.2c-1.49.19-3,.35-4.47.58A20.14,20.14,0,0,0,49.32,6.65c-2.05,2.1-4,4.3-6.18,6.65-1-1.1-2-2.11-2.86-3.2C35.48,4.24,29.71.21,21.78.21h0a2,2,0,0,1-.6-.21h-.86c-1.55.25-3.11.42-4.64.75C7.18,2.58,2.15,7.81.41,16.27c-.1.48-.27,1-.41,1.43v6.48c.83,2.57,1.28,5.37,2.58,7.67A51.25,51.25,0,0,0,9.86,42.42c10.65,11,21.61,21.69,32.46,32.49.24.24.53.45.88.75.63-.6,1.21-1.12,1.76-1.66,8.71-8.67,17.31-17.46,26.16-26,7-6.76,13.35-13.85,15.24-23.84V17.7c-.16-.62-.35-1.23-.47-1.86A18.94,18.94,0,0,0,68.37.38C67.59.32,66.83.13,66.06,0Z"/></g></g></g></svg>