<svg xmlns="http://www.w3.org/2000/svg" viewBox="0 0 306 36"><defs><style>.cls-1{fill:#e52c73;}</style></defs><title>Rewards_Title</title><g id="Layer_2" data-name="Layer 2"><g id="Layer_1-2" data-name="Layer 1"><path class="cls-1" d="M14.4,36H0V0H36V3.6h3.6V14.4H36v7.2h3.6V36H25.2V21.6H14.4Zm0-21.6H25.2V7.2H14.4Z"/><path class="cls-1" d="M46.8,32.4H43.2V3.6h3.6V0h36V7.2H57.6v7.2H68.4v7.2H57.6v7.2H82.8V36h-36Z"/><path class="cls-1" d="M100.8,36H86.4V0h14.4V18h3.6V14.4H108V10.8h3.6v3.6h3.6V18h3.6V0h14.4V36H118.8V32.4h-3.6V28.8h-3.6V25.2H108v3.6h-3.6v3.6h-3.6Z"/><path class="cls-1" d="M151.2,36H136.8V3.6h3.6V0h32.4V3.6h3.6V36H162V21.6H151.2Zm0-21.6H162V7.2H151.2Z"/><path class="cls-1" d="M194.4,36H180V0h36V3.6h3.6V14.4H216v7.2h3.6V36H205.2V21.6H194.4Zm0-21.6h10.8V7.2H194.4Z"/><path class="cls-1" d="M255.6,36H223.2V0h32.4V3.6h3.6V7.2h3.6V28.8h-3.6v3.6h-3.6ZM244.8,7.2h-7.2V28.8h7.2V25.2h3.6V10.8h-3.6Z"/><path class="cls-1" d="M266.4,28.8h25.2V21.6H270V18h-3.6V3.6H270V0h36V7.2H280.8v7.2h21.6V18H306V32.4h-3.6V36h-36Z"/></g></g></svg>