<svg xmlns="http://www.w3.org/2000/svg" viewBox="0 0 74.39 80.08"><defs><style>.cls-1{fill:#bde573;}.cls-2{fill:#93ce26;}.cls-3{fill:#72a00e;}</style></defs><title>Shield_Icon</title><g id="Layer_2" data-name="Layer 2"><g id="Layer_1-2" data-name="Layer 1"><g id="YrkM93.tif"><path class="cls-1" d="M37.22,76.9c-.33-.11-1-.43-1.49-.66a56.83,56.83,0,0,1-19.8-14.88A56,56,0,0,1,4.87,39.25,53.06,53.06,0,0,1,6.7,6.9,41.68,41.68,0,0,0,17.83,8.46,39.94,39.94,0,0,0,37.22,3.3,39.9,39.9,0,0,0,56.61,8.46,41.78,41.78,0,0,0,67.75,6.9a55.39,55.39,0,0,1,3.49,19.52A54.4,54.4,0,0,1,62.41,56,55.19,55.19,0,0,1,38.79,76.22l-.1,0C38.11,76.53,37.51,76.8,37.22,76.9Z"/><path class="cls-2" d="M37.22,6.86a42.65,42.65,0,0,0,19.39,4.75,44,44,0,0,0,9.1-1,52.91,52.91,0,0,1,2.38,15.78,51.26,51.26,0,0,1-8.32,27.84A52,52,0,0,1,37.5,73.35l-.1,0-.16.07-.17-.08a53.7,53.7,0,0,1-18.72-14A52.91,52.91,0,0,1,7.92,38.46,49.3,49.3,0,0,1,6.42,22.59a51.68,51.68,0,0,1,2.32-12,43.86,43.86,0,0,0,9.08,1A42.68,42.68,0,0,0,37.22,6.86m0-6.86A2.53,2.53,0,0,0,36,.38,36.75,36.75,0,0,1,17.83,5.31,38.8,38.8,0,0,1,6.42,3.54a3.55,3.55,0,0,0-1-.2c-.58,0-.88.35-1.23,1.26A56.21,56.21,0,0,0,1.82,40C6.51,58.14,17.44,71.16,34.39,79.1a7.29,7.29,0,0,0,2.83,1,7.73,7.73,0,0,0,2.88-1,58.06,58.06,0,0,0,34.3-52.69A58.43,58.43,0,0,0,70.25,4.64c-.37-.94-.66-1.3-1.24-1.3a3.74,3.74,0,0,0-1,.21A38.88,38.88,0,0,1,56.61,5.31,36.72,36.72,0,0,1,38.43.37,2.44,2.44,0,0,0,37.23,0Z"/></g><polygon class="cls-1" points="35.65 49.81 35.65 37.83 23.67 37.83 23.67 34.68 35.65 34.68 35.65 22.7 38.8 22.7 38.8 34.68 50.78 34.68 50.78 37.83 38.8 37.83 38.8 49.81 35.65 49.81"/><polygon class="cls-3" points="41.95 19.55 32.5 19.55 32.5 31.53 20.52 31.53 20.52 40.98 32.5 40.98 32.5 52.96 41.95 52.96 41.95 40.98 53.93 40.98 53.93 31.53 41.95 31.53 41.95 19.55 41.95 19.55"/></g></g></svg>