<svg xmlns="http://www.w3.org/2000/svg" xmlns:xlink="http://www.w3.org/1999/xlink" viewBox="0 0 1120.79 60.58"><defs><style>.cls-1{isolation:isolate;}.cls-2{fill:#e52c73;}.cls-3{opacity:0.59;mix-blend-mode:overlay;}.cls-4{fill:url(#linear-gradient);}.cls-5{fill:url(#linear-gradient-2);}.cls-6{fill:url(#linear-gradient-3);}.cls-7{fill:url(#linear-gradient-4);}.cls-8{fill:url(#linear-gradient-5);}.cls-9{fill:url(#linear-gradient-6);}.cls-10{fill:url(#linear-gradient-7);}.cls-11{fill:url(#linear-gradient-8);}.cls-12{fill:url(#linear-gradient-9);}.cls-13{fill:url(#linear-gradient-10);}.cls-14{fill:url(#linear-gradient-11);}.cls-15{fill:url(#linear-gradient-12);}.cls-16{fill:url(#linear-gradient-13);}.cls-17{fill:url(#linear-gradient-14);}.cls-18{fill:url(#linear-gradient-15);}</style><linearGradient id="linear-gradient" x1="33.32" x2="33.32" y2="60.58" gradientUnits="userSpaceOnUse"><stop offset="0" stop-color="#fff"/><stop offset="1"/></linearGradient><linearGradient id="linear-gradient-2" x1="102.99" x2="102.99" y2="60.58" xlink:href="#linear-gradient"/><linearGradient id="linear-gradient-3" x1="172.66" x2="172.66" y2="60.58" xlink:href="#linear-gradient"/><linearGradient id="linear-gradient-4" x1="242.33" x2="242.33" y2="60.58" xlink:href="#linear-gradient"/><linearGradient id="linear-gradient-5" x1="312.01" x2="312.01" y2="60.58" xlink:href="#linear-gradient"/><linearGradient id="linear-gradient-6" x1="384.71" x2="384.71" y2="60.58" xlink:href="#linear-gradient"/><linearGradient id="linear-gradient-7" x1="460.44" x2="460.44" y2="60.58" xlink:href="#linear-gradient"/><linearGradient id="linear-gradient-8" x1="575.54" x2="575.54" y2="60.58" xlink:href="#linear-gradient"/><linearGradient id="linear-gradient-9" x1="645.21" x2="645.21" y2="60.58" xlink:href="#linear-gradient"/><linearGradient id="linear-gradient-10" x1="763.35" x2="763.35" y2="60.58" xlink:href="#linear-gradient"/><linearGradient id="linear-gradient-11" x1="839.08" x2="839.08" y2="60.58" xlink:href="#linear-gradient"/><linearGradient id="linear-gradient-12" x1="911.78" x2="911.78" y2="60.58" xlink:href="#linear-gradient"/><linearGradient id="linear-gradient-13" x1="984.48" x2="984.48" y2="60.58" xlink:href="#linear-gradient"/><linearGradient id="linear-gradient-14" x1="1057.18" x2="1057.18" y2="60.58" xlink:href="#linear-gradient"/><linearGradient id="linear-gradient-15" x1="1108.68" x2="1108.68" y2="60.58" xlink:href="#linear-gradient"/></defs><title>Victory_Title_Desktop</title><g class="cls-1"><g id="Layer_2" data-name="Layer 2"><g id="Layer_1-2" data-name="Layer 1"><path class="cls-2" d="M42.41,60.58H0V0H24.23V42.41h6.06V36.35h6.06V30.29h6.06V0H66.64V36.35H60.58v6.06H54.53v6.06H48.47v6.06H42.41Z"/><path class="cls-2" d="M72.7,0h60.58V12.12H115.11V48.47h18.18V60.58H72.7V48.47H90.88V12.12H72.7Z"/><path class="cls-2" d="M199.93,60.58H145.4V54.53h-6.06V6.06h6.06V0h54.53V6.06H206V24.23H181.75V12.12H163.58V48.47h18.18V36.35H206V54.53h-6.06Z"/><path class="cls-2" d="M254.45,60.58H230.22V12.12H212V0h60.58V12.12H254.45Z"/><path class="cls-2" d="M339.27,60.58H284.74V54.53h-6.06V6.06h6.06V0h54.53V6.06h6.06V54.53h-6.06ZM321.09,24.23V12.12H302.92V48.47h18.18V24.23Z"/><path class="cls-2" d="M375.62,60.58H351.38V0H412V6.06H418V24.23H412V36.35H418V60.58H393.79V36.35H375.62Zm0-36.35h18.18V12.12H375.62Z"/><path class="cls-2" d="M424.08,0h24.23V18.18h6.06v6.06h12.12V18.18h6.06V0h24.23V24.23h-6.06v6.06h-6.06v6.06H472.55V60.58H448.32V36.35H436.2V30.29h-6.06V24.23h-6.06Z"/><path class="cls-2" d="M545.25,0h60.58V12.12H587.66V48.47h18.18V60.58H545.25V48.47h18.18V12.12H545.25Z"/><path class="cls-2" d="M611.89,48.47H654.3V36.35H618V30.29h-6.06V6.06H618V0h60.58V12.12H636.13V24.23h36.35v6.06h6.06V54.53h-6.06v6.06H611.89Z"/><path class="cls-2" d="M727,0h24.23V18.18h6.06v6.06h12.12V18.18h6.06V0H799.7V24.23h-6.06v6.06h-6.06v6.06H775.47V60.58H751.24V36.35H739.12V30.29h-6.06V24.23H727Z"/><path class="cls-2" d="M866.34,60.58H811.82V54.53h-6.06V6.06h6.06V0h54.53V6.06h6.06V54.53h-6.06ZM848.17,24.23V12.12H830V48.47h18.18V24.23Z"/><path class="cls-2" d="M939,60.58H884.52V54.53h-6.06V0h24.23V48.47h18.18V0H945.1V54.53H939Z"/><path class="cls-2" d="M975.39,60.58H951.16V0h60.58V6.06h6.06V24.23h-6.06V36.35h6.06V60.58H993.57V36.35H975.39Zm0-36.35h18.18V12.12H975.39Z"/><path class="cls-2" d="M1023.86,48.47h42.41V36.35h-36.35V30.29h-6.06V6.06h6.06V0h60.58V12.12h-42.41V24.23h36.35v6.06h6.06V54.53h-6.06v6.06h-60.58Z"/><path class="cls-2" d="M1096.56,0h24.23V42.41h-24.23Zm0,48.47h24.23V60.58h-24.23Z"/><g class="cls-3"><path class="cls-4" d="M42.41,60.58H0V0H24.23V42.41h6.06V36.35h6.06V30.29h6.06V0H66.64V36.35H60.58v6.06H54.53v6.06H48.47v6.06H42.41Z"/><path class="cls-5" d="M72.7,0h60.58V12.12H115.11V48.47h18.18V60.58H72.7V48.47H90.88V12.12H72.7Z"/><path class="cls-6" d="M199.93,60.58H145.4V54.53h-6.06V6.06h6.06V0h54.53V6.06H206V24.23H181.75V12.12H163.58V48.47h18.18V36.35H206V54.53h-6.06Z"/><path class="cls-7" d="M254.45,60.58H230.22V12.12H212V0h60.58V12.12H254.45Z"/><path class="cls-8" d="M339.27,60.58H284.74V54.53h-6.06V6.06h6.06V0h54.53V6.06h6.06V54.53h-6.06ZM321.09,24.23V12.12H302.92V48.47h18.18V24.23Z"/><path class="cls-9" d="M375.62,60.58H351.38V0H412V6.06H418V24.23H412V36.35H418V60.58H393.79V36.35H375.62Zm0-36.35h18.18V12.12H375.62Z"/><path class="cls-10" d="M424.08,0h24.23V18.18h6.06v6.06h12.12V18.18h6.06V0h24.23V24.23h-6.06v6.06h-6.06v6.06H472.55V60.58H448.32V36.35H436.2V30.29h-6.06V24.23h-6.06Z"/><path class="cls-11" d="M545.25,0h60.58V12.12H587.66V48.47h18.18V60.58H545.25V48.47h18.18V12.12H545.25Z"/><path class="cls-12" d="M611.89,48.47H654.3V36.35H618V30.29h-6.06V6.06H618V0h60.58V12.12H636.13V24.23h36.35v6.06h6.06V54.53h-6.06v6.06H611.89Z"/><path class="cls-13" d="M727,0h24.23V18.18h6.06v6.06h12.12V18.18h6.06V0H799.7V24.23h-6.06v6.06h-6.06v6.06H775.47V60.58H751.24V36.35H739.12V30.29h-6.06V24.23H727Z"/><path class="cls-14" d="M866.34,60.58H811.82V54.53h-6.06V6.06h6.06V0h54.53V6.06h6.06V54.53h-6.06ZM848.17,24.23V12.12H830V48.47h18.18V24.23Z"/><path class="cls-15" d="M939,60.58H884.52V54.53h-6.06V0h24.23V48.47h18.18V0H945.1V54.53H939Z"/><path class="cls-16" d="M975.39,60.58H951.16V0h60.58V6.06h6.06V24.23h-6.06V36.35h6.06V60.58H993.57V36.35H975.39Zm0-36.35h18.18V12.12H975.39Z"/><path class="cls-17" d="M1023.86,48.47h42.41V36.35h-36.35V30.29h-6.06V6.06h6.06V0h60.58V12.12h-42.41V24.23h36.35v6.06h6.06V54.53h-6.06v6.06h-60.58Z"/><path class="cls-18" d="M1096.56,0h24.23V42.41h-24.23Zm0,48.47h24.23V60.58h-24.23Z"/></g></g></g></g></svg>