<svg xmlns="http://www.w3.org/2000/svg" xmlns:xlink="http://www.w3.org/1999/xlink" viewBox="0 0 517.02 71.81"><defs><style>.cls-1{isolation:isolate;}.cls-2{fill:#e52c73;}.cls-3{mix-blend-mode:overlay;}.cls-4{fill:url(#linear-gradient);}.cls-5{fill:url(#linear-gradient-2);}.cls-6{fill:url(#linear-gradient-3);}.cls-7{fill:url(#linear-gradient-4);}.cls-8{fill:url(#linear-gradient-5);}.cls-9{fill:url(#linear-gradient-6);}</style><linearGradient id="linear-gradient" x1="46.68" x2="46.68" y2="71.81" gradientUnits="userSpaceOnUse"><stop offset="0" stop-color="#fff"/><stop offset="1"/></linearGradient><linearGradient id="linear-gradient-2" x1="136.44" x2="136.44" y2="71.81" xlink:href="#linear-gradient"/><linearGradient id="linear-gradient-3" x1="219.01" x2="219.01" y2="71.81" xlink:href="#linear-gradient"/><linearGradient id="linear-gradient-4" x1="305.18" x2="305.18" y2="71.81" xlink:href="#linear-gradient"/><linearGradient id="linear-gradient-5" x1="391.35" x2="391.35" y2="71.81" xlink:href="#linear-gradient"/><linearGradient id="linear-gradient-6" x1="477.52" x2="477.52" y2="71.81" xlink:href="#linear-gradient"/></defs><title>Winner_Title</title><g class="cls-1"><g id="Layer_2" data-name="Layer 2"><g id="Layer_1-2" data-name="Layer 1"><path class="cls-2" d="M28.72,71.81H0V0H28.72V35.9H35.9V28.72h7.18V21.54h7.18v7.18h7.18V35.9h7.18V0H93.35V71.81H64.63V64.63H57.45V57.45H50.27V50.27H43.08v7.18H35.9v7.18H28.72Z"/><path class="cls-2" d="M100.53,0h71.81V14.36H150.8V57.45h21.54V71.81H100.53V57.45h21.54V14.36H100.53Z"/><path class="cls-2" d="M208.24,71.81H179.52V0h28.72V7.18h7.18v7.18h7.18v7.18h7.18V0h28.72V71.81H229.79V50.27H222.6V43.09h-7.18V35.9h-7.18Z"/><path class="cls-2" d="M294.41,71.81H265.69V0h28.72V7.18h7.18v7.18h7.18v7.18H316V0h28.72V71.81H316V50.27h-7.18V43.09h-7.18V35.9h-7.18Z"/><path class="cls-2" d="M359,64.63h-7.18V7.18H359V0h71.81V14.36H380.58V28.72h21.54V43.09H380.58V57.45h50.26V71.81H359Z"/><path class="cls-2" d="M466.75,71.81H438V0h71.81V7.18H517V28.72h-7.18V43.09H517V71.81H488.29V43.09H466.75Zm0-43.09h21.54V14.36H466.75Z"/><g class="cls-3"><path class="cls-4" d="M28.72,71.81H0V0H28.72V35.9H35.9V28.72h7.18V21.54h7.18v7.18h7.18V35.9h7.18V0H93.35V71.81H64.63V64.63H57.45V57.45H50.27V50.27H43.08v7.18H35.9v7.18H28.72Z"/><path class="cls-5" d="M100.53,0h71.81V14.36H150.8V57.45h21.54V71.81H100.53V57.45h21.54V14.36H100.53Z"/><path class="cls-6" d="M208.24,71.81H179.52V0h28.72V7.18h7.18v7.18h7.18v7.18h7.18V0h28.72V71.81H229.79V50.27H222.6V43.09h-7.18V35.9h-7.18Z"/><path class="cls-7" d="M294.41,71.81H265.69V0h28.72V7.18h7.18v7.18h7.18v7.18H316V0h28.72V71.81H316V50.27h-7.18V43.09h-7.18V35.9h-7.18Z"/><path class="cls-8" d="M359,64.63h-7.18V7.18H359V0h71.81V14.36H380.58V28.72h21.54V43.09H380.58V57.45h50.26V71.81H359Z"/><path class="cls-9" d="M466.75,71.81H438V0h71.81V7.18H517V28.72h-7.18V43.09H517V71.81H488.29V43.09H466.75Zm0-43.09h21.54V14.36H466.75Z"/></g></g></g></g></svg>