<svg xmlns="http://www.w3.org/2000/svg" viewBox="0 0 529.19 36"><defs><style>.cls-1{fill:#e52c73;}</style></defs><title>Battle_Roster_Title</title><g id="Layer_2" data-name="Layer 2"><g id="Layer_1-2" data-name="Layer 1"><path class="cls-1" d="M36,36H0V0H36V3.6h3.6V14.4H36v7.2h3.6V32.4H36ZM14.4,14.4H25.2V7.2H14.4Zm0,14.4H25.2V21.6H14.4Z"/><path class="cls-1" d="M57.6,36H43.2V3.6h3.6V0H79.2V3.6h3.6V36H68.4V21.6H57.6Zm0-21.6H68.4V7.2H57.6Z"/><path class="cls-1" d="M111.6,36H97.2V7.2H86.4V0h36V7.2H111.6Z"/><path class="cls-1" d="M151.2,36H136.8V7.2H126V0h36V7.2H151.2Z"/><path class="cls-1" d="M165.6,0H180V28.8h25.2V36H165.6Z"/><path class="cls-1" d="M212.4,32.4h-3.6V3.6h3.6V0h36V7.2H223.2v7.2H234v7.2H223.2v7.2h25.2V36h-36Z"/><path class="cls-1" d="M291.59,36h-14.4V0h36V3.6h3.6V14.4h-3.6v7.2h3.6V36h-14.4V21.6h-10.8Zm0-21.6h10.8V7.2h-10.8Z"/><path class="cls-1" d="M356.39,36H324V32.4h-3.6V3.6H324V0h32.4V3.6H360V32.4h-3.6Zm-10.8-21.6V7.2h-10.8V28.8h10.8V14.4Z"/><path class="cls-1" d="M363.59,28.8h25.2V21.6h-21.6V18h-3.6V3.6h3.6V0h36V7.2H378v7.2h21.6V18h3.6V32.4h-3.6V36h-36Z"/><path class="cls-1" d="M432,36h-14.4V7.2h-10.8V0h36V7.2H432Z"/><path class="cls-1" d="M450,32.4h-3.6V3.6H450V0h36V7.2h-25.2v7.2h10.8v7.2h-10.8v7.2H486V36H450Z"/><path class="cls-1" d="M504,36h-14.4V0h36V3.6h3.6V14.4h-3.6v7.2h3.6V36h-14.4V21.6H504Zm0-21.6h10.8V7.2H504Z"/></g></g></svg>