<svg xmlns="http://www.w3.org/2000/svg" xmlns:xlink="http://www.w3.org/1999/xlink" viewBox="0 0 2328 1358"><defs><style>.cls-1{fill:none;}.cls-2{clip-path:url(#clip-path);}.cls-3{fill:url(#linear-gradient);}.cls-4,.cls-5{fill:#fff;}.cls-5{opacity:0.8;}</style><clipPath id="clip-path" transform="translate(0 0)"><rect class="cls-1" width="2328" height="1358"/></clipPath><linearGradient id="linear-gradient" x1="1164" y1="1355.76" x2="1164" y2="8.7" gradientUnits="userSpaceOnUse"><stop offset="0.23" stop-color="#fff"/><stop offset="0.35" stop-color="#fbfeff"/><stop offset="0.46" stop-color="#effbff"/><stop offset="0.58" stop-color="#daf6ff"/><stop offset="0.69" stop-color="#bef0ff"/><stop offset="0.81" stop-color="#99e7ff"/><stop offset="0.92" stop-color="#6dddff"/><stop offset="1" stop-color="#4ad5ff"/></linearGradient></defs><title>In_Game_Background</title><g id="Layer_2" data-name="Layer 2"><g id="Layer_1-2" data-name="Layer 1"><g class="cls-2"><rect class="cls-3" width="2328" height="1358"/><path class="cls-4" d="M381.33,645.67H322.92c11.18-9,16.45-22,12.12-33.2-3.39-8.76-11.93-14.38-22.36-16a23.94,23.94,0,0,0-25.38-33.71c-4.26-35.53-34.53-66-75.19-72.2-48-7.32-92.22,21.88-98.84,65.23a72.65,72.65,0,0,0,2.45,32.49c-1.74-.35-3.49-.68-5.27-1-37.07-5.66-70.07,9.07-73.71,32.91-1.34,8.76,1.51,17.53,7.45,25.4H16.37a7.88,7.88,0,1,0,0,15.76H23v-.2H272v.2H381.33a7.88,7.88,0,0,0,0-15.76Z" transform="translate(0 0)"/><path class="cls-5" d="M947.54,387.26h-30.3a6.58,6.58,0,0,0,2-4.45c0-6.37-11.55-11.58-26.22-12.08a21.73,21.73,0,0,0,.76-5.5c0-17.75-21.71-32.13-48.5-32.13S797,347.39,796.8,365c-2.18-.17-4.38-.32-6.64-.4-28.78-1.06-52.39,5.94-52.75,15.65-.09,2.42,1.28,4.78,3.83,7h-26.5a7.27,7.27,0,0,0,0,14.55h232.8a7.28,7.28,0,0,0,0-14.55Z" transform="translate(0 0)"/><path class="cls-5" d="M1595.33,455.73h30.3a6.58,6.58,0,0,1-2-4.45c0-6.37,11.55-11.58,26.22-12.08a21.73,21.73,0,0,1-.76-5.51c0-17.75,21.71-32.13,48.5-32.13s48.33,14.28,48.49,31.94c2.18-.17,4.38-.32,6.64-.4,28.78-1.06,52.39,5.94,52.75,15.65.09,2.42-1.28,4.78-3.83,7h26.5a7.27,7.27,0,0,1,0,14.55h-232.8a7.28,7.28,0,0,1,0-14.55Z" transform="translate(0 0)"/><path class="cls-4" d="M1997.84,710.64h42.35c-8.11-6.51-11.92-16-8.79-24.07,2.46-6.35,8.65-10.42,16.21-11.58a17.36,17.36,0,0,1,18.4-24.44c3.09-25.76,25-47.85,54.51-52.35,34.78-5.31,66.87,15.87,71.66,47.3a52.67,52.67,0,0,1-1.78,23.56c1.26-.26,2.53-.49,3.82-.69,26.88-4.1,50.8,6.58,53.44,23.86,1,6.35-1.09,12.71-5.4,18.42h20.18a5.71,5.71,0,1,1,0,11.43h-4.83v-.15H2077.1v.15h-79.27a5.71,5.71,0,0,1,0-11.43Z" transform="translate(0 0)"/><path class="cls-4" d="M1348,663.08h-34.1c6.53-5.24,9.6-12.86,7.07-19.38-2-5.12-7-8.39-13.05-9.33a14,14,0,0,0-14.81-19.68c-2.49-20.74-20.16-38.52-43.89-42.15-28-4.27-53.84,12.78-57.7,38.08a42.41,42.41,0,0,0,1.43,19c-1-.21-2-.4-3.08-.56-21.64-3.3-40.91,5.3-43,19.21-.78,5.12.88,10.23,4.35,14.83h-16.25a4.6,4.6,0,0,0,0,9.2h3.89v-.12h145.34v.12H1348a4.6,4.6,0,1,0,0-9.2Z" transform="translate(0 0)"/><path class="cls-4" d="M1172.89,605.33a1.5,1.5,0,0,0,0-3,1.5,1.5,0,0,0,0,3Z" transform="translate(0 0)"/></g></g></g></svg>