<svg xmlns="http://www.w3.org/2000/svg" viewBox="0 0 347 59.32"><defs><style>.cls-1{fill:#fff;}</style></defs><title>QTS_Logo</title><g id="Layer_2" data-name="Layer 2"><g id="Layer_1-2" data-name="Layer 1"><path class="cls-1" d="M64,18.34A15.58,15.58,0,0,1,80.08,34.28a16.24,16.24,0,0,1-3.66,10.29L79,47.13a1.29,1.29,0,0,1,.13,2l-.58.62a1.24,1.24,0,0,1-2,.09L73.9,47.22A15.58,15.58,0,0,1,64,50.58c-9.27,0-15.94-7.2-15.94-16.29A15.58,15.58,0,0,1,64,18.34Zm0,28.22a10.81,10.81,0,0,0,6.8-2.3l-2.6-2.61a1.29,1.29,0,0,1-.09-2l.58-.57a1.21,1.21,0,0,1,1.95-.18l2.65,2.69a12.51,12.51,0,0,0,2.3-7.28c0-6.85-5-11.92-11.57-11.92S52.57,27.44,52.57,34.28,57.47,46.56,64,46.56Z"/><path class="cls-1" d="M83.68,29.16a1.29,1.29,0,0,1,1.45-1.46h1.37a1.27,1.27,0,0,1,1.41,1.46V41c0,3.09.66,5.57,4.2,5.57,4.59,0,7.28-4,7.28-8.44v-9a1.29,1.29,0,0,1,1.46-1.46h1.37a1.31,1.31,0,0,1,1.45,1.46V48.59A1.3,1.3,0,0,1,102.23,50H101a1.29,1.29,0,0,1-1.45-1.46v-2a7.12,7.12,0,0,1,.13-1.28h-.09a9.3,9.3,0,0,1-8.3,5.26c-5,0-7.59-2.65-7.59-8.57Z"/><path class="cls-1" d="M107.29,21.79V20.33a1.29,1.29,0,0,1,1.46-1.46h1.5a1.31,1.31,0,0,1,1.46,1.46v1.46a1.33,1.33,0,0,1-1.46,1.46h-1.5A1.31,1.31,0,0,1,107.29,21.79Zm0,7.37a1.31,1.31,0,0,1,1.46-1.46h1.37a1.29,1.29,0,0,1,1.45,1.46V48.59A1.29,1.29,0,0,1,110.17,50H108.8a1.31,1.31,0,0,1-1.46-1.46Z"/><path class="cls-1" d="M126.64,27.17A11.8,11.8,0,0,1,134,29.56a1.27,1.27,0,0,1,.26,2l-.44.66c-.53.79-1.15.84-2,.35a8.56,8.56,0,0,0-5-1.68,7.61,7.61,0,0,0-7.78,8,7.73,7.73,0,0,0,7.86,8,9.4,9.4,0,0,0,5.7-2,1.24,1.24,0,0,1,2,.4l.36.66a1.33,1.33,0,0,1-.4,1.94,12.48,12.48,0,0,1-7.95,2.74c-7,0-11.92-5-11.92-11.7S119.66,27.17,126.64,27.17Z"/><path class="cls-1" d="M138.85,20.33a1.29,1.29,0,0,1,1.45-1.46h1.37a1.27,1.27,0,0,1,1.41,1.46V35.87h3.23l5.43-7.24a1.79,1.79,0,0,1,1.72-.93h1.63c1.2,0,1.59.79.88,1.77l-6.18,8.08v.09L157,48.28c.61,1,.22,1.77-1,1.77h-1.76a1.8,1.8,0,0,1-1.72-1l-6.09-9.45h-3.31v9A1.27,1.27,0,0,1,141.67,50h-1.37a1.29,1.29,0,0,1-1.45-1.46Z"/><path class="cls-1" d="M165.71,22.67h-9.27A1.31,1.31,0,0,1,155,21.21v-.88a1.29,1.29,0,0,1,1.45-1.46h22.88a1.27,1.27,0,0,1,1.41,1.46v.88a1.29,1.29,0,0,1-1.41,1.46H170V48.59A1.31,1.31,0,0,1,168.58,50h-1.45a1.28,1.28,0,0,1-1.42-1.46Z"/><path class="cls-1" d="M189.44,36.27h1.15V35.7c0-3.66-2.12-4.9-4.86-4.9a10.4,10.4,0,0,0-5,1.41,1.37,1.37,0,0,1-2-.53l-.35-.62a1.32,1.32,0,0,1,.48-2,14.7,14.7,0,0,1,7.24-1.9c5.57,0,8.79,3.09,8.79,8.74V48.59A1.31,1.31,0,0,1,193.41,50h-1.1a1.31,1.31,0,0,1-1.46-1.46V47.26A6.12,6.12,0,0,1,191,45.9h-.09a8.29,8.29,0,0,1-7.28,4.68c-3.93,0-7.51-2.43-7.51-6.62C176.11,37,184.8,36.27,189.44,36.27Zm-4.86,10.91c3.76,0,6.05-3.8,6.05-7.11v-1h-1.15c-3.14,0-9.05.26-9.05,4.5C180.43,45.37,181.84,47.18,184.58,47.18Z"/><path class="cls-1" d="M198.48,29.16a1.29,1.29,0,0,1,1.46-1.46h1c1,0,1.45.49,1.45,1.24v1.33a8.29,8.29,0,0,1-.09,1.19h.09a8.1,8.1,0,0,1,7.51-4.28c6,0,9.8,4.77,9.8,11.7,0,7.11-4.28,11.7-10.11,11.7a7.64,7.64,0,0,1-6.93-4h-.09a12.84,12.84,0,0,1,.13,1.94v8.87a1.27,1.27,0,0,1-1.41,1.46h-1.37a1.29,1.29,0,0,1-1.46-1.46Zm10.46,17.71c3.53,0,6.45-2.87,6.45-7.95,0-4.86-2.61-8-6.32-8-3.36,0-6.45,2.34-6.45,8C202.63,42.94,204.84,46.87,208.95,46.87Z"/><path class="cls-1" d="M222.57,45.32l.75-1.06a1.29,1.29,0,0,1,2-.27,11.49,11.49,0,0,0,6.8,2.52c3.31,0,5.48-1.77,5.48-4.46,0-6.89-15-5.34-15-15.06,0-5.25,4.42-8.65,10.11-8.65a13.54,13.54,0,0,1,7.82,2.38,1.4,1.4,0,0,1,.44,2l-.62,1.1c-.53.93-1.24.84-2,.4a10.85,10.85,0,0,0-5.74-1.81c-3.23,0-5.61,1.68-5.61,4.37,0,6.71,15,4.9,15,14.93,0,4.9-3.66,8.88-9.89,8.88a15.46,15.46,0,0,1-9.36-3.22A1.33,1.33,0,0,1,222.57,45.32Z"/><path class="cls-1" d="M245.78,29.16a1.29,1.29,0,0,1,1.45-1.46h1.37A1.27,1.27,0,0,1,250,29.16V41c0,3.09.66,5.57,4.2,5.57,4.59,0,7.28-4,7.28-8.44v-9A1.29,1.29,0,0,1,263,27.7h1.37a1.31,1.31,0,0,1,1.45,1.46V48.59A1.3,1.3,0,0,1,264.32,50h-1.24a1.29,1.29,0,0,1-1.45-1.46v-2a7.12,7.12,0,0,1,.13-1.28h-.09a9.3,9.3,0,0,1-8.3,5.26c-5,0-7.59-2.65-7.59-8.57Z"/><path class="cls-1" d="M269.39,29.16a1.31,1.31,0,0,1,1.45-1.46h1.24a1.27,1.27,0,0,1,1.43,1.46v3.48a8,8,0,0,1,6.82-5.12c1,0,1.42.48,1.42,1.46v1.24c0,1-.58,1.46-1.59,1.46-3.31,0-6.49,4.63-6.49,9.89v7A1.29,1.29,0,0,1,272.21,50h-1.37a1.3,1.3,0,0,1-1.45-1.46Z"/><path class="cls-1" d="M283.86,29.38c-.35-1,.09-1.68,1.15-1.68h1.5a1.53,1.53,0,0,1,1.63,1.19l5,13.91a25.63,25.63,0,0,1,.79,3h.09s.39-1.81.79-3l5-13.91a1.54,1.54,0,0,1,1.64-1.19H303c1.06,0,1.55.66,1.15,1.68L296.93,48.9A1.54,1.54,0,0,1,295.3,50h-2.47a1.54,1.54,0,0,1-1.63-1.15Z"/><path class="cls-1" d="M315.49,27.17c6.18,0,9.62,4.42,9.62,10.64a1.49,1.49,0,0,1-1.5,1.5H308.69a7.54,7.54,0,0,0,7.73,7.55,9.14,9.14,0,0,0,5.34-1.77,1.3,1.3,0,0,1,2,.49l.4.66a1.31,1.31,0,0,1-.44,1.95,13.28,13.28,0,0,1-7.55,2.38,11.38,11.38,0,0,1-11.84-11.7C304.31,31.76,309.12,27.17,315.49,27.17Zm5.34,9.32c-.13-3.93-2.47-6-5.43-6-3.27,0-5.92,2.21-6.54,6Z"/><path class="cls-1" d="M328,55.21a4.45,4.45,0,0,0,1.76.48c1.81,0,3.14-1.59,3.84-3.36l1.1-2.56-8.65-20.4c-.44-1,0-1.68,1.1-1.68h1.72a1.54,1.54,0,0,1,1.64,1.15l5.25,13.47c.4,1.1.79,2.69.79,2.69h.09s.35-1.5.75-2.65l5.08-13.47a1.5,1.5,0,0,1,1.63-1.19h1.59c1.06,0,1.55.66,1.15,1.68L337,54a7.66,7.66,0,0,1-7.24,5.34,8,8,0,0,1-3.09-.71,1.31,1.31,0,0,1-.66-1.9l.35-.75A1.27,1.27,0,0,1,328,55.21Z"/><path class="cls-1" d="M35.21,46V35.52c0-1.46-.8-2.14-2.75-3.17-.4-.21-.84-.44-1.55-.79a.34.34,0,0,0-.53.33v2.42a.58.58,0,0,1-.58.58h0a.58.58,0,0,1-.58-.58V31.49a1.21,1.21,0,0,0-.68-1c-1.17-.49-2.37-1-3.89-1.46a.5.5,0,0,0-.66.47V32.7a.58.58,0,0,1-.58.58h0a.58.58,0,0,1-.58-.58V29.07a.93.93,0,0,0-.6-.83c-1.29-.36-2.54-.66-4-.94a.49.49,0,0,0-.61.5l0,7.53a.58.58,0,0,1-.58.58h0a.58.58,0,0,1-.58-.58V15.78a3.62,3.62,0,0,0-3.62-3.62h0A3.62,3.62,0,0,0,9,15.78V41a.6.6,0,0,1-.6.6h0a.6.6,0,0,1-.6-.6V31.49c-.67.27-3.8,2.16-4.25,2.41-.82.46-1,1.08-1,2.82v8.05c0,2.37,9,13.78,9,13.78a1.84,1.84,0,0,0,1.46.72H28a1.84,1.84,0,0,0,1.51-.79C30.94,56.38,35.21,50.15,35.21,46Z"/><path class="cls-1" d="M12.71,0A12.7,12.7,0,0,0,7.83,24.44V20.36a9.1,9.1,0,1,1,9.72,0v4.07A12.7,12.7,0,0,0,12.71,0Z"/></g></g></svg>