<svg xmlns="http://www.w3.org/2000/svg" xmlns:xlink="http://www.w3.org/1999/xlink" viewBox="0 0 886.07 68.16"><defs><style>.cls-1{isolation:isolate;}.cls-2{fill:#e52c73;}.cls-3{fill:#f5842e;}.cls-4{opacity:0.5;mix-blend-mode:overlay;}.cls-5{fill:url(#linear-gradient);}.cls-6{fill:url(#linear-gradient-2);}.cls-7{fill:url(#linear-gradient-3);}.cls-8{fill:url(#linear-gradient-4);}.cls-9{fill:url(#linear-gradient-5);}.cls-10{fill:url(#linear-gradient-6);}.cls-11{fill:url(#linear-gradient-7);}.cls-12{fill:url(#linear-gradient-8);}.cls-13{fill:url(#linear-gradient-9);}.cls-14{fill:url(#linear-gradient-10);}.cls-15{fill:url(#linear-gradient-11);}.cls-16{fill:url(#linear-gradient-12);}.cls-17{fill:url(#linear-gradient-13);}</style><linearGradient id="linear-gradient" x1="31.24" x2="31.24" y2="68.16" gradientUnits="userSpaceOnUse"><stop offset="0" stop-color="#fff"/><stop offset="1"/></linearGradient><linearGradient id="linear-gradient-2" x1="99.4" x2="99.4" y2="56.8" xlink:href="#linear-gradient"/><linearGradient id="linear-gradient-3" x1="164.72" x2="164.72" y2="56.8" xlink:href="#linear-gradient"/><linearGradient id="linear-gradient-4" x1="230.04" x2="230.04" y2="56.8" xlink:href="#linear-gradient"/><linearGradient id="linear-gradient-5" x1="301.03" x2="301.03" y2="56.8" xlink:href="#linear-gradient"/><linearGradient id="linear-gradient-6" x1="369.19" x2="369.19" y2="56.8" xlink:href="#linear-gradient"/><linearGradient id="linear-gradient-7" x1="434.51" x2="434.51" y2="56.8" xlink:href="#linear-gradient"/><linearGradient id="linear-gradient-8" x1="502.67" x2="502.67" y2="56.8" xlink:href="#linear-gradient"/><linearGradient id="linear-gradient-9" x1="576.51" x2="576.51" y2="56.8" xlink:href="#linear-gradient"/><linearGradient id="linear-gradient-10" x1="650.35" x2="650.35" y2="56.8" xlink:href="#linear-gradient"/><linearGradient id="linear-gradient-11" x1="718.51" x2="718.51" y2="56.8" xlink:href="#linear-gradient"/><linearGradient id="linear-gradient-12" x1="786.67" x2="786.67" y2="56.8" xlink:href="#linear-gradient"/><linearGradient id="linear-gradient-13" x1="854.83" x2="854.83" y2="56.8" xlink:href="#linear-gradient"/></defs><title>Asset 13</title><g class="cls-1"><g id="Layer_2" data-name="Layer 2"><g id="Layer_1-2" data-name="Layer 1"><path class="cls-2" d="M22.72,56.8h-17V51.12H0V5.68H5.68V0H56.8V5.68h5.68V51.12H56.8V56.8h-17V68.16h-17Zm0-45.44V45.44h17V11.36Z"/><path class="cls-2" d="M125,56.8H73.84V51.12H68.16V0H90.88V45.44h17V0h22.72V51.12H125Z"/><path class="cls-2" d="M136.32,0h56.8V11.36h-17V45.44h17V56.8h-56.8V45.44h17V11.36h-17Z"/><path class="cls-2" d="M255.6,56.8H204.48V51.12H198.8V5.68h5.68V0H255.6V5.68h5.68v17H238.56V11.36h-17V45.44h17V34.08h22.72v17H255.6Z"/><path class="cls-2" d="M289.67,56.8H267V0h22.72V17h5.68V11.36H301V5.68h5.68V0h28.4V11.36h-5.68V17h-5.68v5.68h-5.68V34.08h5.68v5.68h5.68v5.68h5.68V56.8h-28.4V51.12H301V45.44h-5.68V39.76h-5.68Z"/><path class="cls-2" d="M380.55,56.8H357.83V11.36h-17V0h56.8V11.36h-17Z"/><path class="cls-2" d="M426,56.8H403.27V5.68H409V0h51.12V5.68h5.68V56.8H443V34.08H426Zm0-34.08h17V11.36H426Z"/><path class="cls-2" d="M494.15,56.8H471.43V0h56.8V5.68h5.68V28.4h-5.68v5.68H494.15Zm0-34.08h17V11.36h-17Z"/><path class="cls-3" d="M562.31,56.8H539.59V0h22.72V5.68H568v5.68h5.68V17h5.68V11.36H585V5.68h5.68V0h22.72V56.8H590.71V28.4H585v5.68h-5.68v5.68h-5.68V34.08H568V28.4h-5.68Z"/><path class="cls-3" d="M624.79,51.12h-5.68V5.68h5.68V0h56.8V11.36H641.83V22.72h17V34.08h-17V45.44h39.76V56.8h-56.8Z"/><path class="cls-3" d="M687.27,0H710V45.44h39.76V56.8H687.27Z"/><path class="cls-3" d="M761.11,51.12h-5.68V5.68h5.68V0h56.8V11.36H778.15V22.72h17V34.08h-17V45.44h39.76V56.8h-56.8Z"/><path class="cls-3" d="M829.27,51.12h-5.68V5.68h5.68V0h56.8V11.36H846.31V22.72h17V34.08h-17V45.44h39.76V56.8h-56.8Z"/><g class="cls-4"><path class="cls-5" d="M22.72,56.8h-17V51.12H0V5.68H5.68V0H56.8V5.68h5.68V51.12H56.8V56.8h-17V68.16h-17Zm0-45.44V45.44h17V11.36Z"/><path class="cls-6" d="M125,56.8H73.84V51.12H68.16V0H90.88V45.44h17V0h22.72V51.12H125Z"/><path class="cls-7" d="M136.32,0h56.8V11.36h-17V45.44h17V56.8h-56.8V45.44h17V11.36h-17Z"/><path class="cls-8" d="M255.6,56.8H204.48V51.12H198.8V5.68h5.68V0H255.6V5.68h5.68v17H238.56V11.36h-17V45.44h17V34.08h22.72v17H255.6Z"/><path class="cls-9" d="M289.67,56.8H267V0h22.72V17h5.68V11.36H301V5.68h5.68V0h28.4V11.36h-5.68V17h-5.68v5.68h-5.68V34.08h5.68v5.68h5.68v5.68h5.68V56.8h-28.4V51.12H301V45.44h-5.68V39.76h-5.68Z"/><path class="cls-10" d="M380.55,56.8H357.83V11.36h-17V0h56.8V11.36h-17Z"/><path class="cls-11" d="M426,56.8H403.27V5.68H409V0h51.12V5.68h5.68V56.8H443V34.08H426Zm0-34.08h17V11.36H426Z"/><path class="cls-12" d="M494.15,56.8H471.43V0h56.8V5.68h5.68V28.4h-5.68v5.68H494.15Zm0-34.08h17V11.36h-17Z"/><path class="cls-13" d="M562.31,56.8H539.59V0h22.72V5.68H568v5.68h5.68V17h5.68V11.36H585V5.68h5.68V0h22.72V56.8H590.71V28.4H585v5.68h-5.68v5.68h-5.68V34.08H568V28.4h-5.68Z"/><path class="cls-14" d="M624.79,51.12h-5.68V5.68h5.68V0h56.8V11.36H641.83V22.72h17V34.08h-17V45.44h39.76V56.8h-56.8Z"/><path class="cls-15" d="M687.27,0H710V45.44h39.76V56.8H687.27Z"/><path class="cls-16" d="M761.11,51.12h-5.68V5.68h5.68V0h56.8V11.36H778.15V22.72h17V34.08h-17V45.44h39.76V56.8h-56.8Z"/><path class="cls-17" d="M829.27,51.12h-5.68V5.68h5.68V0h56.8V11.36H846.31V22.72h17V34.08h-17V45.44h39.76V56.8h-56.8Z"/></g></g></g></g></svg>