<svg xmlns="http://www.w3.org/2000/svg" xmlns:xlink="http://www.w3.org/1999/xlink" viewBox="0 0 891 193"><defs><style>.cls-1{isolation:isolate;}.cls-2{fill:#adadad;}.cls-2,.cls-3{stroke:#727271;stroke-miterlimit:10;stroke-width:5px;}.cls-3{opacity:0.53;mix-blend-mode:overlay;fill:url(#linear-gradient);}.cls-4{fill:#fff;}</style><linearGradient id="linear-gradient" x1="445.5" y1="2.5" x2="445.5" y2="190.5" gradientUnits="userSpaceOnUse"><stop offset="0" stop-color="#fff"/><stop offset="1"/></linearGradient></defs><title>Readying_Fighters_BTN</title><g class="cls-1"><g id="Layer_2" data-name="Layer 2"><g id="Layer_1-2" data-name="Layer 1"><rect class="cls-2" x="2.5" y="2.5" width="886" height="188" rx="10" ry="10"/><rect class="cls-3" x="2.5" y="2.5" width="886" height="188" rx="10" ry="10"/><path class="cls-4" d="M105.31,114.5H90.91v-36h36v3.6h3.6V92.9h-3.6v7.2h3.6v14.4h-14.4V100.1h-10.8Zm0-21.6h10.8V85.7h-10.8Z"/><path class="cls-4" d="M137.71,110.9h-3.6V82.1h3.6V78.5h36v7.2H148.5v7.2h10.8v7.2H148.5v7.2h25.2v7.2h-36Z"/><path class="cls-4" d="M191.7,114.5H177.3V82.1h3.6V78.5h32.4v3.6h3.6v32.4H202.5V100.1H191.7Zm0-21.6h10.8V85.7H191.7Z"/><path class="cls-4" d="M252.9,114.5H220.5v-36h32.4v3.6h3.6v3.6h3.6v21.6h-3.6v3.6h-3.6ZM242.1,85.7h-7.2v21.6h7.2v-3.6h3.6V89.3h-3.6Z"/><path class="cls-4" d="M263.7,78.5h14.4V89.3h3.6v3.6h7.2V89.3h3.6V78.5h14.4V92.9h-3.6v3.6h-3.6v3.6h-7.2v14.4H278.1V100.1h-7.2V96.5h-3.6V92.9h-3.6Z"/><path class="cls-4" d="M310.5,78.5h36v7.2H335.7v21.6h10.8v7.2h-36v-7.2h10.8V85.7H310.5Z"/><path class="cls-4" d="M364.5,114.5H350.1v-36h14.4v3.6h3.6v3.6h3.6v3.6h3.6V78.5h14.4v36H375.3V103.7h-3.6v-3.6h-3.6V96.5h-3.6Z"/><path class="cls-4" d="M429.3,114.5H396.9v-3.6h-3.6V82.1h3.6V78.5h36v7.2H407.7v21.6h10.8v-7.2h-7.2V92.9h18v3.6h3.6v14.4h-3.6Z"/><path class="cls-4" d="M476.1,114.5H461.7V82.1h3.6V78.5h36v7.2H476.1v7.2h10.8v7.2H476.1Z"/><path class="cls-4" d="M504.9,78.5h36v7.2H530.1v21.6h10.8v7.2h-36v-7.2h10.8V85.7H504.9Z"/><path class="cls-4" d="M580.5,114.5H548.1v-3.6h-3.6V82.1h3.6V78.5h36v7.2H558.9v21.6h10.8v-7.2h-7.2V92.9h18v3.6h3.6v14.4h-3.6Z"/><path class="cls-4" d="M602.1,114.5H587.7v-36h14.4V92.9h10.8V78.5h14.4v36H612.9V100.1H602.1Z"/><path class="cls-4" d="M656.1,114.5H641.7V85.7H630.9V78.5h36v7.2H656.1Z"/><path class="cls-4" d="M674.09,110.9h-3.6V82.1h3.6V78.5h36v7.2h-25.2v7.2h10.8v7.2h-10.8v7.2h25.2v7.2h-36Z"/><path class="cls-4" d="M728.09,114.5h-14.4v-36h36v3.6h3.6V92.9h-3.6v7.2h3.6v14.4h-14.4V100.1h-10.8Zm0-21.6h10.8V85.7h-10.8Z"/><path class="cls-4" d="M756.89,107.3h25.2v-7.2h-21.6V96.5h-3.6V82.1h3.6V78.5h36v7.2h-25.2v7.2h21.6v3.6h3.6v14.4h-3.6v3.6h-36Z"/></g></g></g></svg>