<svg xmlns="http://www.w3.org/2000/svg" xmlns:xlink="http://www.w3.org/1999/xlink" viewBox="0 0 886.49 101.9"><defs><style>.cls-1{isolation:isolate;}.cls-2{fill:#e52c73;}.cls-3{opacity:0.59;mix-blend-mode:overlay;}.cls-4{fill:url(#linear-gradient);}.cls-5{fill:url(#linear-gradient-2);}.cls-6{fill:url(#linear-gradient-3);}.cls-7{fill:url(#linear-gradient-4);}.cls-8{fill:url(#linear-gradient-5);}.cls-9{fill:url(#linear-gradient-6);}.cls-10{fill:url(#linear-gradient-7);}</style><linearGradient id="linear-gradient" x1="66.23" x2="66.23" y2="101.9" gradientUnits="userSpaceOnUse"><stop offset="0" stop-color="#fff"/><stop offset="1"/></linearGradient><linearGradient id="linear-gradient-2" x1="198.7" x2="198.7" y2="101.9" xlink:href="#linear-gradient"/><linearGradient id="linear-gradient-3" x1="320.97" x2="320.97" y2="101.9" xlink:href="#linear-gradient"/><linearGradient id="linear-gradient-4" x1="443.25" x2="443.25" y2="101.9" xlink:href="#linear-gradient"/><linearGradient id="linear-gradient-5" x1="565.52" x2="565.52" y2="101.9" xlink:href="#linear-gradient"/><linearGradient id="linear-gradient-6" x1="697.98" x2="697.98" y2="101.9" xlink:href="#linear-gradient"/><linearGradient id="linear-gradient-7" x1="830.45" x2="830.45" y2="101.9" xlink:href="#linear-gradient"/></defs><title>Welcome_Title</title><g class="cls-1"><g id="Layer_2" data-name="Layer 2"><g id="Layer_1-2" data-name="Layer 1"><path class="cls-2" d="M40.76,101.9H0V0H40.76V50.95H50.95V40.76H61.14V30.57H71.33V40.76H81.52V50.95H91.71V0h40.76V101.9H91.71V91.71H81.52V81.52H71.33V71.33H61.14V81.52H50.95V91.71H40.76Z"/><path class="cls-2" d="M152.85,91.71H142.66V10.19h10.19V0h101.9V20.38H183.41V40.76H214V61.14H183.41V81.52h71.33V101.9H152.85Z"/><path class="cls-2" d="M264.93,0h40.76V81.52H377V101.9H264.93Z"/><path class="cls-2" d="M489.1,101.9H397.39V91.71H387.2V10.19h10.19V0H489.1V10.19h10.19V40.76H458.53V20.38H428V81.52h30.57V61.14h40.76V91.71H489.1Z"/><path class="cls-2" d="M611.37,101.9H519.67V91.71H509.48V10.19h10.19V0h91.71V10.19h10.19V91.71H611.37ZM580.81,40.76V20.38H550.24V81.52h30.57V40.76Z"/><path class="cls-2" d="M672.51,101.9H631.75V0h40.76V10.19H682.7V20.38h10.19V30.57h10.19V20.38h10.19V10.19h10.19V0h40.76V101.9H723.46V50.95H713.27V61.14H703.08V71.33H692.89V61.14H682.7V50.95H672.51Z"/><path class="cls-2" d="M784.6,91.71H774.41V10.19H784.6V0h101.9V20.38H815.17V40.76h30.57V61.14H815.17V81.52h71.33V101.9H784.6Z"/><g class="cls-3"><path class="cls-4" d="M40.76,101.9H0V0H40.76V50.95H50.95V40.76H61.14V30.57H71.33V40.76H81.52V50.95H91.71V0h40.76V101.9H91.71V91.71H81.52V81.52H71.33V71.33H61.14V81.52H50.95V91.71H40.76Z"/><path class="cls-5" d="M152.85,91.71H142.66V10.19h10.19V0h101.9V20.38H183.41V40.76H214V61.14H183.41V81.52h71.33V101.9H152.85Z"/><path class="cls-6" d="M264.93,0h40.76V81.52H377V101.9H264.93Z"/><path class="cls-7" d="M489.1,101.9H397.39V91.71H387.2V10.19h10.19V0H489.1V10.19h10.19V40.76H458.53V20.38H428V81.52h30.57V61.14h40.76V91.71H489.1Z"/><path class="cls-8" d="M611.37,101.9H519.67V91.71H509.48V10.19h10.19V0h91.71V10.19h10.19V91.71H611.37ZM580.81,40.76V20.38H550.24V81.52h30.57V40.76Z"/><path class="cls-9" d="M672.51,101.9H631.75V0h40.76V10.19H682.7V20.38h10.19V30.57h10.19V20.38h10.19V10.19h10.19V0h40.76V101.9H723.46V50.95H713.27V61.14H703.08V71.33H692.89V61.14H682.7V50.95H672.51Z"/><path class="cls-10" d="M784.6,91.71H774.41V10.19H784.6V0h101.9V20.38H815.17V40.76h30.57V61.14H815.17V81.52h71.33V101.9H784.6Z"/></g></g></g></g></svg>